<svg width="32" height="32" viewBox="0 0 32 32" fill="none" xmlns="http://www.w3.org/2000/svg">
    <path d="M16 32C24.8366 32 32 24.8366 32 16C32 7.16344 24.8366 0 16 0C7.16344 0 0 7.16344 0 16C0 24.8366 7.16344 32 16 32Z" fill="#2464ec"/>
    <path fill-rule="evenodd" clip-rule="evenodd" d="M22.5102 18.9783C24.6938 17.9043 26.1495 15.5913 25.9878 12.9478C25.7451 9.56089 22.9955 7 19.6797 7H12.3203C9.00453 7 6.25487 9.56089 6.01225 12.9478C5.85051 15.5913 7.30621 17.9043 9.40889 18.9783C9.57063 19.0609 9.65151 19.2261 9.57063 19.4739L8.76191 21.2087C8.43842 21.8696 8.60017 22.6957 9.0854 23.274C9.97499 24.1826 11.4307 23.8522 11.9968 22.7783L13.4525 19.8044C13.5334 19.7218 13.6142 19.6391 13.776 19.6391C13.9377 19.6391 14.0995 19.8044 14.0995 19.9696V24.1826C14.0995 25.174 14.9082 26 15.8787 26C16.93 26 17.7387 25.174 17.7387 24.1V19.887C17.7387 19.7218 17.9005 19.5565 18.0622 19.5565C18.224 19.5565 18.3049 19.6391 18.3858 19.7218L19.9223 22.7783C20.4884 23.8522 21.8633 24.1 22.7529 23.274C23.3998 22.6957 23.4807 21.787 23.1572 21.0435L22.3485 19.3913C22.2676 19.2261 22.3485 19.0609 22.5102 18.9783ZM19.7606 15.9218H12.2394C10.8646 15.9218 9.73238 14.7652 9.73238 13.3609C9.73238 11.9565 10.8646 10.8 12.2394 10.8H19.8415C21.2163 10.8 22.3485 11.9565 22.3485 13.3609C22.3485 14.7652 21.2163 15.9218 19.7606 15.9218Z" fill="#FAF6F0"/>
</svg>