<svg width="51" height="45" viewBox="0 0 51 45" fill="none" xmlns="http://www.w3.org/2000/svg">
    <path
        d="M45.888 15.2359C48.3781 14.088 49.4035 11.8349 49.4663 9.8155C49.5709 6.542 47.1645 3.09843 42.3306 2.94964H42.0376C35.4879 2.73707 30.0263 7.9662 29.8379 14.5982L29.7333 17.7867C29.545 24.3124 34.5881 29.7753 41.0123 29.9666C46.7878 30.1367 50.0941 26.3743 50.2196 22.4418C50.2824 20.0824 49.1943 17.4466 45.8671 15.8948C45.6159 15.746 45.6159 15.3634 45.888 15.2359ZM40.0915 23.8235L39.673 23.8873C39.2754 23.9511 38.8988 23.6747 38.8151 23.2708L38.7732 23.0583C38.6267 22.2293 37.999 21.5916 37.2038 21.4428C36.4086 21.294 35.5925 21.6766 35.174 22.3993L35.0694 22.5906C34.8601 22.952 34.4207 23.0583 34.0649 22.867L33.6883 22.6544C33.3325 22.4418 33.2279 21.9955 33.4162 21.6341L33.5209 21.4428C34.337 20.0186 35.9482 19.2746 37.5386 19.5722C39.129 19.8698 40.3636 21.1452 40.6356 22.7607L40.6775 22.9733C40.7612 23.3771 40.4891 23.7597 40.0915 23.8235Z"
        fill="currentColor" />
    <path
        d="M19.7934 27.6706L23.2043 32.8997C23.2043 32.9635 23.2252 33.0273 23.2252 33.091C21.9906 36.3008 18.3495 37.6612 15.399 36.152C14.6247 35.7481 13.9551 35.1954 13.4529 34.494C13.1599 34.1114 12.6368 34.0051 12.2183 34.2389L12.0927 34.3027C11.5696 34.6003 11.4231 35.3017 11.7788 35.7694C12.4903 36.7047 13.3901 37.4911 14.4573 38.0226C15.1479 38.3839 15.8594 38.6177 16.5918 38.7453C16.5708 38.9366 16.5499 39.1279 16.5499 39.3192C16.5499 40.8284 17.1149 42.2526 18.1612 43.3154C19.2075 44.3782 20.6095 44.9734 22.0952 44.9947C22.2208 44.9947 22.3673 44.9947 22.4928 44.9734C24.3134 44.8459 25.9246 43.8468 26.8663 42.2526C27.5778 42.6565 28.352 42.9541 29.1891 43.1241C29.8378 43.2516 30.5074 43.2942 31.1561 43.2517C31.5955 43.2304 32.0141 43.1666 32.4326 43.0603C33.0185 42.9115 33.3533 42.2951 33.1231 41.7212L33.0813 41.5936C32.9139 41.1473 32.4326 40.8709 31.9722 40.9985C31.1979 41.1898 30.3818 41.211 29.5867 41.0622C28.1009 40.7646 26.8245 39.9144 25.9665 38.639C25.1085 37.3636 24.8156 35.8331 25.0876 34.3239C25.1295 34.1114 25.1922 33.8775 25.255 33.665L30.7376 30.3702C31.8885 29.6688 31.6374 27.9045 30.34 27.5644L22.7649 25.5875C22.2626 25.46 22.0115 24.886 22.2417 24.4397L24.0413 20.8048C24.7528 19.3806 25.3178 17.8927 25.7782 16.3834C26.0084 15.6395 26.1967 14.8955 26.3641 14.1515L26.5315 13.365C27.2848 9.8364 25.4852 6.2654 22.2208 4.84117L12.9716 0.759922C10.6907 -0.239138 8.075 -0.281648 5.8359 0.802432C3.42945 1.97154 1.73446 4.20347 1.23224 6.8393L0.0813224 12.9399C-0.253488 14.6829 0.457992 16.511 1.98557 17.3825C3.555 18.2965 5.4802 18.0414 6.7566 16.8086C8.8283 14.8317 12.6577 11.1118 15.3571 8.4973C16.8847 7.0093 19.1447 6.5842 21.1117 7.4132L21.2373 7.477C23.56 8.4548 24.8784 10.9843 24.3343 13.4926L24.2715 13.7689C24.125 14.4491 23.9576 15.1081 23.7484 15.7883C23.3299 17.2124 22.7649 18.5941 22.1162 19.9333L19.8353 24.5672L19.7725 24.6522C19.2493 25.5662 19.2493 26.7354 19.7934 27.6706ZM22.0952 42.869C21.1745 42.869 20.2956 42.4864 19.6469 41.8275C18.9982 41.1685 18.7471 40.5308 18.6425 39.5955C18.6006 39.1917 18.8936 38.8303 19.2703 38.7665C20.2956 38.5752 21.2791 38.1926 22.158 37.6187C22.5765 37.3423 23.1415 37.5337 23.3089 38.0013C23.5391 38.639 23.8321 39.2554 24.2087 39.8294C24.3761 40.0844 24.5645 40.3395 24.7737 40.5733C25.0248 40.8709 25.0039 41.2961 24.7737 41.5936C24.125 42.4014 23.1624 42.869 22.0952 42.869Z"
        fill="currentColor" />
    <path
        d="M15.713 20.4226C17.408 20.9327 19.2076 19.9549 19.7098 18.2331C20.2121 16.5114 19.2704 14.6833 17.5754 14.1731C15.8804 13.663 14.0808 14.6408 13.5786 16.3626C13.0554 18.0843 14.018 19.8911 15.713 20.4226Z"
        fill="currentColor" />
</svg>