<svg width="285" height="55" viewBox="0 0 285 55" fill="none" xmlns="http://www.w3.org/2000/svg">
<path d="M62.6064 15.4957C62.6064 14.9643 63.0249 14.5604 63.5272 14.5604H71.9393C73.0275 14.5604 74.1156 14.6454 75.2037 14.7942C76.2919 14.943 77.2754 15.2619 78.1543 15.7295C79.0331 16.1972 79.7237 16.8561 80.2678 17.6851C80.8118 18.5141 81.0839 19.6407 81.0839 21.0224C81.0839 22.4678 80.6863 23.6582 79.8911 24.5935C79.0959 25.55 78.0496 26.209 76.7522 26.6341V26.6979C77.5683 26.8254 78.3217 27.0592 78.9913 27.3994C79.6609 27.7395 80.2468 28.1858 80.7281 28.7385C81.2094 29.2699 81.5861 29.9076 81.8372 30.6303C82.0883 31.3531 82.2348 32.1183 82.2348 32.926C82.2348 34.2652 81.9418 35.3918 81.3768 36.2846C80.8118 37.1773 80.0794 37.9001 79.1796 38.4527C78.2798 39.0054 77.2754 39.4093 76.1454 39.6431C75.0154 39.8769 73.9063 40.0045 72.7973 40.0045H63.4644C62.9412 40.0045 62.5437 39.5793 62.5437 39.0692V15.4957H62.6064ZM68.1099 23.7645C68.1099 24.2959 68.5284 24.6998 69.0306 24.6998H72.1067C72.5252 24.6998 72.9438 24.6573 73.3623 24.551C73.7808 24.466 74.1365 24.2959 74.4713 24.0833C74.8061 23.8708 75.0572 23.5732 75.2665 23.2118C75.4758 22.8505 75.5595 22.4253 75.5595 21.9152C75.5595 21.3838 75.4548 20.9586 75.2247 20.5973C74.9945 20.2572 74.7015 19.9808 74.3667 19.7895C74.011 19.5982 73.6134 19.4707 73.1739 19.3856C72.7345 19.3006 72.2951 19.2581 71.8556 19.2581H69.0306C68.5075 19.2581 68.1099 19.6832 68.1099 20.1934V23.7645V23.7645ZM68.1099 34.2865C68.1099 34.8179 68.5284 35.2217 69.0306 35.2217H73.0484C73.4669 35.2217 73.9063 35.1792 74.3458 35.0729C74.7852 34.9879 75.1828 34.8179 75.5385 34.5628C75.8943 34.329 76.1872 34.0101 76.3965 33.6275C76.6267 33.2449 76.7313 32.7772 76.7313 32.2246C76.7313 31.6294 76.5848 31.1405 76.2919 30.7791C75.9989 30.4178 75.6222 30.1202 75.1828 29.9289C74.7434 29.7376 74.2411 29.61 73.7389 29.525C73.2158 29.4612 72.7345 29.4187 72.2951 29.4187H69.0516C68.5284 29.4187 68.1308 29.8438 68.1308 30.354V34.2865H68.1099Z" fill="#11203D"/>
<path d="M94.581 37.7938H94.5182C93.9323 38.7291 93.1371 39.4093 92.1745 39.8132C91.191 40.217 90.1657 40.4296 89.0775 40.4296C88.2824 40.4296 87.5081 40.3233 86.7548 40.0895C86.0224 39.8557 85.3527 39.5156 84.7877 39.0692C84.2228 38.6228 83.7833 38.0489 83.4485 37.3899C83.1137 36.7097 82.9463 35.9445 82.9463 35.0517C82.9463 34.0527 83.1346 33.2024 83.4904 32.5009C83.8461 31.7995 84.3483 31.2256 84.9761 30.7792C85.6039 30.3328 86.3153 29.9714 87.1105 29.7163C87.9057 29.4613 88.7427 29.27 89.6007 29.1637C90.4586 29.0361 91.3166 28.9724 92.1745 28.9511C92.614 28.9298 93.0534 28.9298 93.451 28.9298C94.1416 28.9298 94.5601 28.1859 94.2671 27.5694C94.0997 27.2081 93.8486 26.9105 93.5347 26.6554C92.8651 26.1027 92.0699 25.8051 91.1492 25.8051C90.2703 25.8051 89.4751 25.9965 88.7636 26.3578C88.3033 26.5916 87.8638 26.8892 87.4663 27.2506C87.0896 27.5907 86.5246 27.5694 86.1689 27.2081L84.704 25.6776C84.3065 25.2737 84.3692 24.5935 84.8296 24.2534C85.6248 23.6582 86.5037 23.1906 87.4663 22.8505C88.7846 22.3828 90.1447 22.149 91.5677 22.149C93.1162 22.149 94.4136 22.3403 95.3971 22.7442C96.4015 23.1481 97.1967 23.722 97.8036 24.4872C98.4104 25.2525 98.8289 26.1878 99.0591 27.3144C99.2893 28.4197 99.4149 29.7163 99.4149 31.183V39.1117C99.4149 39.6431 98.9963 40.047 98.4941 40.047H95.4808C94.9577 40.047 94.5601 39.6219 94.5601 39.1117V37.7938H94.581ZM93.2627 32.3309C92.8651 32.3309 92.3629 32.3521 91.756 32.3947C91.1492 32.4372 90.5842 32.5222 90.0192 32.6922C89.4751 32.8623 88.9938 33.1174 88.5962 33.4575C88.1987 33.7976 88.0103 34.2652 88.0103 34.8604C88.0103 35.4981 88.2824 35.987 88.8264 36.3059C89.3705 36.6247 89.9355 36.7735 90.5214 36.7735C91.0446 36.7735 91.5468 36.7097 92.0281 36.5609C92.5094 36.4121 92.9488 36.2208 93.3255 35.9445C93.7021 35.6894 93.9951 35.3493 94.2253 34.9454C94.4555 34.5416 94.5601 34.0527 94.5601 33.5V33.2874C94.5601 32.756 94.1416 32.3521 93.6393 32.3521H93.2627V32.3309Z" fill="#11203D"/>
<path d="M102.658 22.5105H106.111C106.634 22.5105 107.032 22.9356 107.032 23.4457V25.2951H107.095C107.66 24.211 108.329 23.4032 109.103 22.8718C109.878 22.3404 110.861 22.0641 112.033 22.0641C112.347 22.0641 112.64 22.0853 112.954 22.1066C113.435 22.1491 113.791 22.553 113.791 23.0419V25.9753C113.791 26.5704 113.268 26.9956 112.703 26.9105H112.682C112.326 26.8468 111.928 26.8255 111.531 26.8255C110.526 26.8255 109.71 26.9743 109.124 27.2507C108.538 27.5482 108.078 27.9309 107.764 28.4623C107.45 28.9724 107.241 29.5889 107.136 30.3116C107.032 31.0343 106.99 31.8208 106.99 32.6923V39.048C106.99 39.5794 106.571 39.9833 106.069 39.9833H102.617C102.093 39.9833 101.696 39.5582 101.696 39.048V23.467C101.738 22.9356 102.135 22.5105 102.658 22.5105Z" fill="#11203D"/>
<path d="M115.988 12.8174H119.441C119.964 12.8174 120.362 13.2426 120.362 13.7527V26.8892C120.362 27.7608 121.429 28.1646 121.994 27.5057L125.97 22.8505C126.137 22.6379 126.409 22.5317 126.681 22.5317H130.699C131.494 22.5317 131.933 23.4882 131.389 24.1046L126.43 29.8226C126.137 30.1627 126.116 30.6516 126.388 31.013L131.85 38.474C132.31 39.0905 131.871 39.9832 131.096 39.9832H126.765C126.451 39.9832 126.158 39.8344 125.991 39.5581L120.445 31.1405H120.382V39.0267C120.382 39.5581 119.964 39.962 119.462 39.962H116.009C115.486 39.962 115.088 39.5368 115.088 39.0267V13.7527C115.067 13.2426 115.486 12.8174 115.988 12.8174Z" fill="#11203D"/>
<path d="M134.34 15.4957C134.34 14.9643 134.758 14.5604 135.261 14.5604H143.673C144.761 14.5604 145.849 14.6454 146.937 14.7942C148.025 14.943 149.009 15.2619 149.888 15.7295C150.767 16.1972 151.457 16.8561 152.001 17.6851C152.545 18.5141 152.817 19.6407 152.817 21.0224C152.817 22.4678 152.42 23.6582 151.625 24.5935C150.829 25.55 149.783 26.209 148.486 26.6341V26.6979C149.302 26.8254 150.055 27.0592 150.725 27.3994C151.394 27.7395 151.98 28.1858 152.462 28.7385C152.943 29.2699 153.32 29.9076 153.571 30.6303C153.822 31.3531 153.968 32.1183 153.968 32.926C153.968 34.2652 153.675 35.3918 153.11 36.2846C152.545 37.1773 151.813 37.9001 150.913 38.4527C150.013 39.0054 149.009 39.4093 147.879 39.6431C146.749 39.8769 145.64 40.0045 144.531 40.0045H135.198C134.675 40.0045 134.277 39.5793 134.277 39.0692V15.4957H134.34ZM139.864 23.7645C139.864 24.2959 140.283 24.6998 140.785 24.6998H143.861C144.28 24.6998 144.698 24.6573 145.117 24.551C145.535 24.466 145.891 24.2959 146.226 24.0833C146.561 23.8708 146.812 23.5732 147.021 23.2118C147.23 22.8505 147.314 22.4253 147.314 21.9152C147.314 21.3838 147.209 20.9586 146.979 20.5973C146.749 20.2572 146.456 19.9808 146.121 19.7895C145.765 19.5982 145.368 19.4707 144.928 19.3856C144.489 19.3006 144.05 19.2581 143.61 19.2581H140.806C140.283 19.2581 139.885 19.6832 139.885 20.1934V23.7645H139.864ZM139.864 34.2865C139.864 34.8179 140.283 35.2217 140.785 35.2217H144.803C145.221 35.2217 145.661 35.1792 146.1 35.0729C146.54 34.9879 146.937 34.8179 147.293 34.5628C147.649 34.329 147.942 34.0101 148.151 33.6275C148.381 33.2449 148.486 32.7772 148.486 32.2246C148.486 31.6294 148.339 31.1405 148.046 30.7791C147.753 30.4178 147.377 30.1202 146.937 29.9289C146.498 29.7376 145.996 29.61 145.493 29.525C144.97 29.4612 144.489 29.4187 144.05 29.4187H140.806C140.283 29.4187 139.885 29.8438 139.885 30.354V34.2865H139.864Z" fill="#11203D"/>
<path d="M171.169 39.9832H167.947C167.424 39.9832 167.026 39.558 167.026 39.0479V37.6237H166.963C166.775 37.9638 166.524 38.3039 166.231 38.6228C165.938 38.9629 165.582 39.2605 165.143 39.5155C164.724 39.7706 164.243 40.0044 163.699 40.1532C163.155 40.3233 162.569 40.4083 161.92 40.4083C160.581 40.4083 159.493 40.1957 158.656 39.7706C157.819 39.3455 157.17 38.7716 156.71 38.0276C156.249 37.2836 155.935 36.4121 155.789 35.413C155.642 34.414 155.559 33.3086 155.559 32.1395V23.4669C155.559 22.9355 155.977 22.5316 156.479 22.5316H159.932C160.455 22.5316 160.853 22.9567 160.853 23.4669V31.0767C160.853 31.5869 160.874 32.097 160.916 32.6497C160.958 33.1811 161.062 33.6913 161.23 34.1376C161.397 34.584 161.669 34.9666 162.046 35.243C162.401 35.5406 162.945 35.6681 163.615 35.6681C164.306 35.6681 164.85 35.5406 165.268 35.2855C165.687 35.0304 166.022 34.6903 166.231 34.2864C166.461 33.8613 166.608 33.3937 166.67 32.8623C166.733 32.3308 166.775 31.7782 166.775 31.2042V23.4669C166.775 22.9355 167.193 22.5316 167.696 22.5316H171.148C171.672 22.5316 172.069 22.9567 172.069 23.4669V39.0479C172.09 39.558 171.672 39.9832 171.169 39.9832Z" fill="#11203D"/>
<path d="M174.58 18.1103C174.141 16.3886 174.685 15.0707 176.191 14.1354C176.275 14.0929 176.359 14.0503 176.443 14.0291C178.138 13.5827 179.435 14.1354 180.356 15.6658C180.398 15.7509 180.439 15.8359 180.46 15.9209C180.9 17.6427 180.356 18.9606 178.849 19.8959C178.765 19.9384 178.682 19.9809 178.598 20.0022C176.903 20.4486 175.606 19.8959 174.685 18.3654C174.622 18.2804 174.601 18.1954 174.58 18.1103ZM175.794 22.5104H179.247C179.77 22.5104 180.167 22.9356 180.167 23.4457V39.0267C180.167 39.5582 179.749 39.962 179.247 39.962H175.794C175.271 39.962 174.873 39.5369 174.873 39.0267V23.467C174.852 22.9356 175.271 22.5104 175.794 22.5104Z" fill="#11203D"/>
<path d="M183.913 12.8174H187.366C187.889 12.8174 188.287 13.2426 188.287 13.7527V39.0267C188.287 39.5581 187.868 39.962 187.366 39.962H183.913C183.39 39.962 182.992 39.5369 182.992 39.0267V13.7527C182.992 13.2426 183.411 12.8174 183.913 12.8174Z" fill="#11203D"/>
<path d="M208.166 39.9832H205.153C204.63 39.9832 204.232 39.558 204.232 39.0479V37.6875H204.169C203.96 38.0063 203.688 38.3252 203.332 38.644C202.997 38.9628 202.579 39.2604 202.139 39.5155C201.679 39.7706 201.177 40.0044 200.612 40.1532C200.047 40.3233 199.482 40.4083 198.896 40.4083C197.619 40.4083 196.469 40.1957 195.422 39.7493C194.376 39.303 193.497 38.6865 192.744 37.8788C191.99 37.071 191.425 36.1145 191.028 35.0304C190.63 33.9251 190.421 32.7134 190.421 31.3955C190.421 30.1839 190.609 29.0148 190.965 27.8882C191.321 26.7829 191.844 25.7838 192.514 24.9336C193.183 24.062 193.999 23.3818 194.983 22.8717C195.945 22.3615 197.054 22.1064 198.268 22.1064C199.377 22.1064 200.403 22.2765 201.365 22.6379C202.328 22.978 203.102 23.5731 203.709 24.4234H203.772V13.7952C203.772 13.2637 204.19 12.8599 204.692 12.8599H208.145C208.668 12.8599 209.066 13.285 209.066 13.7952V39.0691C209.108 39.558 208.689 39.9832 208.166 39.9832ZM204.211 31.2467C204.211 29.9288 203.834 28.866 203.102 28.0583C202.37 27.2505 201.323 26.8466 199.963 26.8466C198.603 26.8466 197.578 27.2505 196.824 28.0583C196.092 28.866 195.715 29.9288 195.715 31.2467C195.715 32.5646 196.092 33.6275 196.824 34.4352C197.578 35.243 198.603 35.6468 199.963 35.6468C201.323 35.6468 202.349 35.243 203.102 34.4352C203.855 33.6275 204.211 32.5646 204.211 31.2467Z" fill="#11203D"/>
<path d="M212.079 18.1103C211.64 16.3886 212.184 15.0707 213.69 14.1354C213.774 14.0929 213.858 14.0503 213.942 14.0291C215.637 13.5827 216.934 14.1354 217.855 15.6658C217.897 15.7509 217.938 15.8359 217.959 15.9209C218.399 17.6427 217.855 18.9606 216.348 19.8959C216.264 19.9384 216.181 19.9809 216.097 20.0022C214.402 20.4486 213.105 19.8959 212.184 18.3654C212.121 18.2804 212.1 18.1954 212.079 18.1103ZM213.293 22.5104H216.746C217.269 22.5104 217.666 22.9356 217.666 23.4457V39.0267C217.666 39.5582 217.248 39.962 216.746 39.962H213.293C212.77 39.962 212.372 39.5369 212.372 39.0267V23.467C212.351 22.9356 212.77 22.5104 213.293 22.5104Z" fill="#11203D"/>
<path d="M221.349 22.5103H224.572C225.095 22.5103 225.493 22.9355 225.493 23.4456V24.8698H225.555C225.723 24.5297 225.953 24.1896 226.267 23.8707C226.581 23.5306 226.937 23.233 227.355 22.978C227.774 22.7229 228.255 22.4891 228.799 22.3403C229.343 22.1702 229.929 22.0852 230.578 22.0852C231.917 22.0852 233.005 22.2978 233.842 22.7229C234.658 23.148 235.307 23.7219 235.767 24.4659C236.228 25.2099 236.541 26.0814 236.709 27.0805C236.876 28.0795 236.96 29.1849 236.96 30.354V39.0479C236.96 39.5793 236.541 39.9832 236.039 39.9832H232.586C232.063 39.9832 231.666 39.558 231.666 39.0479V31.4381C231.666 30.9279 231.645 30.4177 231.603 29.8651C231.561 29.3124 231.456 28.8235 231.289 28.3771C231.122 27.9307 230.85 27.5481 230.473 27.2718C230.117 26.9742 229.573 26.8467 228.904 26.8467C228.213 26.8467 227.669 26.9742 227.25 27.2293C226.832 27.4843 226.497 27.8245 226.288 28.2283C226.058 28.6535 225.911 29.1211 225.848 29.6525C225.786 30.1839 225.744 30.7366 225.744 31.3105V39.0691C225.744 39.6005 225.325 40.0044 224.823 40.0044H221.37C220.847 40.0044 220.45 39.5793 220.45 39.0691V23.4669C220.429 22.9355 220.847 22.5103 221.349 22.5103Z" fill="#11203D"/>
<path d="M257.718 38.5165C257.718 41.8325 256.902 44.3407 255.249 46.0413C253.617 47.763 251.106 48.6133 247.758 48.6133C246.23 48.6133 244.723 48.4433 243.238 48.0819C242.045 47.8056 240.936 47.3167 239.89 46.6152C239.45 46.3176 239.346 45.7437 239.638 45.2973L241.522 42.4277C241.815 41.9813 242.401 41.875 242.819 42.1726C243.405 42.5977 244.033 42.9591 244.661 43.2354C245.56 43.6393 246.565 43.8518 247.653 43.8518C249.285 43.8518 250.478 43.448 251.252 42.6402C252.027 41.8325 252.403 40.8122 252.403 39.558V37.8788H252.34C251.734 38.7078 250.959 39.303 250.059 39.6643C249.16 40.0044 248.302 40.1957 247.486 40.1957C246.209 40.1957 245.058 39.9832 244.012 39.5368C242.966 39.0904 242.087 38.474 241.333 37.6662C240.58 36.8585 240.015 35.9019 239.618 34.8178C239.22 33.7125 239.011 32.5009 239.011 31.183C239.011 30.0351 239.199 28.9085 239.555 27.8032C239.91 26.6979 240.434 25.7413 241.103 24.8911C241.773 24.0621 242.589 23.3818 243.572 22.8504C244.535 22.3403 245.644 22.0852 246.858 22.0852C247.611 22.0852 248.302 22.1702 248.929 22.3403C249.557 22.5103 250.122 22.7229 250.604 22.978C251.106 23.233 251.524 23.5306 251.88 23.8495C252.236 24.1683 252.508 24.4872 252.738 24.806H252.801V23.4456C252.801 22.9142 253.219 22.5103 253.721 22.5103H256.735C257.258 22.5103 257.656 22.9355 257.656 23.4456V38.5165H257.718ZM244.326 31.1405C244.326 31.7144 244.43 32.2671 244.64 32.7772C244.849 33.2874 245.163 33.755 245.54 34.1376C245.937 34.5415 246.377 34.8604 246.879 35.0942C247.381 35.328 247.946 35.4555 248.553 35.4555C249.139 35.4555 249.704 35.328 250.206 35.0942C250.729 34.8604 251.169 34.5415 251.566 34.1376C251.964 33.7338 252.257 33.2874 252.466 32.7772C252.675 32.2671 252.78 31.7144 252.78 31.1405C252.78 30.5665 252.675 30.0139 252.466 29.5037C252.257 28.9936 251.943 28.5259 251.566 28.1433C251.169 27.7394 250.729 27.4206 250.206 27.1868C249.683 26.9529 249.139 26.8254 248.553 26.8254C247.946 26.8254 247.381 26.9529 246.879 27.1868C246.377 27.4206 245.916 27.7394 245.54 28.1433C245.142 28.5472 244.849 28.9936 244.64 29.5037C244.451 30.0139 244.326 30.5665 244.326 31.1405Z" fill="#11203D"/>
<path d="M270.546 26.8467C270.106 26.5278 269.625 26.2515 269.081 26.0177C269.039 25.9964 268.997 25.9964 268.976 25.9752C267.846 25.6351 266.842 25.6563 266.005 26.0602C265.545 26.2728 265.314 26.6554 265.314 27.1655C265.314 27.6757 265.565 28.037 266.068 28.2496C266.57 28.4622 267.386 28.696 268.537 28.9723C269.207 29.1211 269.855 29.3124 270.546 29.5888C271.215 29.8438 271.822 30.2052 272.366 30.6303C272.91 31.0555 273.35 31.5869 273.685 32.2033C274.02 32.8198 274.187 33.5637 274.187 34.4352C274.187 35.5618 273.957 36.5184 273.517 37.2836C273.078 38.0701 272.492 38.6865 271.76 39.1754C271.048 39.6643 270.232 40.0044 269.332 40.217C268.432 40.4296 267.533 40.5359 266.654 40.5359C265.21 40.5359 263.808 40.302 262.427 39.8344C261.422 39.4943 260.543 39.0266 259.769 38.4527C259.309 38.1126 259.267 37.4537 259.643 37.0285L261.59 34.9454C261.924 34.584 262.468 34.5628 262.845 34.8816C263.222 35.2005 263.64 35.4768 264.122 35.7106C264.875 36.0933 265.67 36.2846 266.528 36.2846C267.009 36.2846 267.47 36.1783 267.93 35.9445C268.39 35.7106 268.621 35.3068 268.621 34.7328C268.621 34.1802 268.328 33.7763 267.763 33.5212C267.198 33.2661 266.319 32.9898 265.105 32.6922C264.498 32.5434 263.87 32.3521 263.264 32.1183C262.657 31.8845 262.092 31.5656 261.611 31.1405C261.129 30.7366 260.732 30.2265 260.418 29.6313C260.104 29.0361 259.957 28.3134 259.957 27.4844C259.957 26.4003 260.188 25.4863 260.627 24.7423C261.066 23.9771 261.652 23.3606 262.364 22.893C263.075 22.4041 263.85 22.064 264.708 21.8301C265.565 21.5963 266.423 21.49 267.281 21.49C268.6 21.49 269.897 21.7026 271.153 22.1277C272.032 22.4253 272.827 22.8292 273.517 23.3181C273.978 23.6582 274.04 24.3384 273.643 24.7423L271.76 26.7191C271.446 27.0805 270.923 27.123 270.546 26.8467Z" fill="#11203D"/>
<path d="M277.64 15.0069C279.209 15.0069 280.486 16.3035 280.486 17.919C280.486 19.5133 279.209 20.8099 277.64 20.8099C276.07 20.8099 274.815 19.5133 274.815 17.919C274.794 16.3035 276.07 15.0069 277.64 15.0069ZM277.64 20.1722C278.874 20.1722 279.816 19.1732 279.816 17.8978C279.816 16.6224 278.853 15.6233 277.64 15.6233C276.426 15.6233 275.463 16.6224 275.463 17.8978C275.443 19.1732 276.405 20.1722 277.64 20.1722ZM277.556 18.3654H277.326V19.4495H276.593V16.3248H277.807C278.393 16.3248 278.853 16.7712 278.853 17.3451C278.853 17.7702 278.623 18.0891 278.267 18.2591L278.874 19.4707H278.058L277.556 18.3654ZM277.702 17.749C277.974 17.749 278.142 17.6002 278.142 17.3451C278.142 17.09 277.974 16.92 277.702 16.92H277.347V17.749H277.702Z" fill="#11203D"/>
<path d="M50.888 20.2359C53.3781 19.088 54.4035 16.8349 54.4663 14.8155C54.5709 11.542 52.1645 8.09843 47.3306 7.94964H47.0376C40.4879 7.73707 35.0263 12.9662 34.8379 19.5982L34.7333 22.7867C34.545 29.3124 39.5881 34.7753 46.0123 34.9666C51.7878 35.1367 55.0941 31.3743 55.2196 27.4418C55.2824 25.0824 54.1943 22.4466 50.8671 20.8948C50.6159 20.746 50.6159 20.3634 50.888 20.2359ZM45.0915 28.8235L44.673 28.8873C44.2754 28.9511 43.8988 28.6747 43.8151 28.2708L43.7732 28.0583C43.6267 27.2293 42.999 26.5916 42.2038 26.4428C41.4086 26.294 40.5925 26.6766 40.174 27.3993L40.0694 27.5906C39.8601 27.952 39.4207 28.0583 39.0649 27.867L38.6883 27.6544C38.3325 27.4418 38.2279 26.9955 38.4162 26.6341L38.5209 26.4428C39.337 25.0186 40.9482 24.2746 42.5386 24.5722C44.129 24.8698 45.3636 26.1452 45.6356 27.7607L45.6775 27.9733C45.7612 28.3771 45.4891 28.7597 45.0915 28.8235Z" fill="#01A0D9"/>
<path d="M24.7934 32.6706L28.2043 37.8997C28.2043 37.9635 28.2252 38.0273 28.2252 38.091C26.9906 41.3008 23.3495 42.6612 20.399 41.152C19.6247 40.7481 18.9551 40.1954 18.4529 39.494C18.1599 39.1114 17.6368 39.0051 17.2183 39.2389L17.0927 39.3027C16.5696 39.6003 16.4231 40.3017 16.7788 40.7694C17.4903 41.7047 18.3901 42.4911 19.4573 43.0226C20.1479 43.3839 20.8594 43.6177 21.5918 43.7453C21.5708 43.9366 21.5499 44.1279 21.5499 44.3192C21.5499 45.8284 22.1149 47.2526 23.1612 48.3154C24.2075 49.3782 25.6095 49.9734 27.0952 49.9947C27.2208 49.9947 27.3673 49.9947 27.4928 49.9734C29.3134 49.8459 30.9246 48.8468 31.8663 47.2526C32.5778 47.6565 33.352 47.9541 34.1891 48.1241C34.8378 48.2516 35.5074 48.2942 36.1561 48.2517C36.5955 48.2304 37.0141 48.1666 37.4326 48.0603C38.0185 47.9115 38.3533 47.2951 38.1231 46.7212L38.0813 46.5936C37.9139 46.1473 37.4326 45.8709 36.9722 45.9985C36.1979 46.1898 35.3818 46.211 34.5867 46.0622C33.1009 45.7646 31.8245 44.9144 30.9665 43.639C30.1085 42.3636 29.8156 40.8331 30.0876 39.3239C30.1295 39.1114 30.1922 38.8775 30.255 38.665L35.7376 35.3702C36.8885 34.6688 36.6374 32.9045 35.34 32.5644L27.7649 30.5875C27.2626 30.46 27.0115 29.886 27.2417 29.4397L29.0413 25.8048C29.7528 24.3806 30.3178 22.8927 30.7782 21.3834C31.0084 20.6395 31.1967 19.8955 31.3641 19.1515L31.5315 18.365C32.2848 14.8364 30.4852 11.2654 27.2208 9.84117L17.9716 5.75992C15.6907 4.76086 13.075 4.71835 10.8359 5.80243C8.42945 6.97154 6.73446 9.20347 6.23224 11.8393L5.08132 17.9399C4.74651 19.6829 5.45799 21.511 6.98557 22.3825C8.555 23.2965 10.4802 23.0414 11.7566 21.8086C13.8283 19.8317 17.6577 16.1118 20.3571 13.4973C21.8847 12.0093 24.1447 11.5842 26.1117 12.4132L26.2373 12.477C28.56 13.4548 29.8784 15.9843 29.3343 18.4926L29.2715 18.7689C29.125 19.4491 28.9576 20.1081 28.7484 20.7883C28.3299 22.2124 27.7649 23.5941 27.1162 24.9333L24.8353 29.5672L24.7725 29.6522C24.2493 30.5662 24.2493 31.7354 24.7934 32.6706ZM27.0952 47.869C26.1745 47.869 25.2956 47.4864 24.6469 46.8275C23.9982 46.1685 23.7471 45.5308 23.6425 44.5955C23.6006 44.1917 23.8936 43.8303 24.2703 43.7665C25.2956 43.5752 26.2791 43.1926 27.158 42.6187C27.5765 42.3423 28.1415 42.5337 28.3089 43.0013C28.5391 43.639 28.8321 44.2554 29.2087 44.8294C29.3761 45.0844 29.5645 45.3395 29.7737 45.5733C30.0248 45.8709 30.0039 46.2961 29.7737 46.5936C29.125 47.4014 28.1624 47.869 27.0952 47.869Z" fill="#11203D"/>
<path d="M20.713 25.4226C22.408 25.9327 24.2076 24.9549 24.7098 23.2331C25.2121 21.5114 24.2704 19.6833 22.5754 19.1731C20.8804 18.663 19.0808 19.6408 18.5786 21.3626C18.0554 23.0843 19.018 24.8911 20.713 25.4226Z" fill="#11203D"/>
</svg>
