<svg width="464" height="83" viewBox="0 0 464 83" fill="none" xmlns="http://www.w3.org/2000/svg">
    <path
        d="M144.844 58.8721H148.716C152.266 67.8798 160.332 78.4961 168.077 78.4961C171.949 78.4961 174.853 76.8876 174.853 71.7403C174.853 67.2364 170.658 64.3411 162.914 61.124C153.556 57.2636 145.812 53.0814 145.812 40.8566C145.812 28.6318 154.847 21.876 170.981 21.876C176.789 21.876 184.21 23.1628 189.695 25.7364V43.1085H185.823C182.274 33.4574 176.466 26.0581 170.658 26.0581C166.786 26.0581 163.882 27.9884 163.882 32.1705C163.882 36.031 167.108 38.6047 177.757 42.7868C188.727 47.2907 193.89 51.1512 193.89 61.7674C193.89 74.9574 184.21 82.6783 167.754 82.6783C161.946 82.6783 151.943 81.3915 146.458 77.8527L144.844 58.8721Z"
        fill="currentColor" />
    <path
        d="M328.444 52.1163C328.444 64.3411 332.316 73.0271 341.996 73.0271C349.74 73.0271 353.935 71.7403 357.484 63.6977L360.388 65.3062C355.871 79.1395 345.545 82.6783 333.284 82.6783C312.955 82.6783 302.953 73.9922 302.953 52.438C302.953 32.4922 313.923 21.5543 333.606 21.5543C361.033 21.5543 361.356 40.2132 361.356 46.0039C361.356 49.8643 360.388 51.7946 356.516 51.7946H328.444V52.1163ZM335.542 47.2907C338.446 46.969 339.414 46.6473 339.414 42.1434C339.414 38.2829 339.414 26.3798 334.252 26.3798C329.734 26.3798 328.444 37.9612 328.444 47.9341L335.542 47.2907Z"
        fill="currentColor" />
    <path
        d="M109.996 52.1163C109.996 64.3411 113.868 73.0271 123.548 73.0271C131.292 73.0271 135.487 71.7403 139.036 63.6977L141.94 65.3062C137.423 79.1395 127.097 82.6783 114.836 82.6783C94.5077 82.6783 84.5049 73.9922 84.5049 52.438C84.5049 32.4922 95.4757 21.5543 115.159 21.5543C142.586 21.5543 142.908 40.2132 142.908 46.0039C142.908 49.8643 141.94 51.7946 138.068 51.7946H109.996V52.1163ZM117.095 47.2907C119.999 46.969 120.967 46.6473 120.967 42.1434C120.967 38.2829 120.967 26.3798 115.804 26.3798C111.287 26.3798 109.996 37.9612 109.996 47.9341L117.095 47.2907Z"
        fill="currentColor" />
    <path
        d="M221.962 28.6318V63.0543C221.962 71.0969 223.576 74.6357 228.093 74.6357C229.707 74.6357 230.675 74.3139 231.965 73.9922L232.611 77.2093C225.834 80.7481 220.349 83 213.896 83C203.57 83 197.439 79.1395 197.439 67.8798V28.6318H191.631V23.1628H198.085L212.928 9.65115H221.962V23.1628H231.643V28.3101H221.962V28.6318Z"
        fill="currentColor" />
    <path
        d="M53.5285 6.75583C67.726 6.75583 79.3421 7.72094 79.3421 23.1628C79.3421 31.8489 73.2114 38.6047 58.0459 39.8915V40.8566C69.9847 41.8217 81.9235 44.0737 81.9235 59.1938C81.9235 77.8527 62.2406 81.0698 47.3978 81.0698H9V77.531C15.4534 77.2093 16.0987 76.5659 16.0987 71.0969V17.0504C16.0987 11.5814 15.4534 10.6163 9 10.2946V6.75583H53.5285ZM41.5897 39.5698H44.4937C51.9152 39.5698 54.1739 36.031 54.1739 26.0582C54.1739 15.4419 49.6565 11.5814 45.7844 11.5814C41.5897 11.5814 41.9124 12.5465 41.9124 14.4768V39.5698H41.5897ZM41.5897 71.4186C41.5897 74.9574 41.9124 76.8876 46.7524 76.8876C51.9152 76.8876 55.7872 71.0969 55.7872 60.1589C55.7872 49.8644 52.5605 43.752 44.4937 43.752H41.5897V71.4186Z"
        fill="currentColor" />
    <path
        d="M291.337 29.9186C285.851 15.7636 280.688 9.32945 273.267 9.32945C268.427 9.32945 263.587 11.2597 263.587 18.6589C263.587 24.7713 270.04 29.2752 277.784 32.4922C294.886 39.8915 300.694 44.3953 300.694 58.2287C300.694 71.4186 292.627 83.3217 269.395 83.3217C262.296 83.3217 251.648 81.3914 245.195 76.8876L243.904 54.6899H248.099C254.875 69.4884 260.683 78.8178 270.363 78.8178C276.171 78.8178 279.72 75.6008 279.72 69.8101C279.72 65.3062 278.752 60.4806 267.136 55.655C248.099 47.6124 243.904 40.8566 243.904 28.9535C243.904 14.155 254.552 5.14728 272.944 5.14728C281.334 5.14728 289.401 6.75581 295.531 9.32945V29.9186H291.337Z"
        fill="currentColor" />
    <path
        d="M359.743 81.3915V77.8527C365.551 77.531 366.196 77.2093 366.196 71.4186V11.5814C366.196 8.36434 365.551 7.07752 363.615 6.75581L360.388 6.43411V2.57364L389.751 0L390.074 0.321705V71.0969C390.074 76.8876 390.719 77.2093 396.527 77.531V81.0698H359.743V81.3915Z"
        fill="currentColor" />
    <path
        d="M395.236 23.1628H401.69V21.876C401.69 13.8333 404.917 7.39923 410.402 3.86047C414.274 1.60853 419.437 0 424.599 0C435.893 0 439.442 4.50388 439.442 7.39922C439.442 12.2248 434.28 14.4767 432.021 14.4767C429.44 14.4767 428.472 13.8333 427.181 11.2597C425.89 7.39922 424.922 4.18217 423.309 4.18217C422.341 4.18217 422.018 5.14729 422.018 6.1124C422.018 12.8682 425.89 18.3372 425.89 23.1628H434.925V28.3101H425.89V71.0969C425.89 76.8876 426.535 77.2093 433.634 77.531V81.0698H395.236V77.531C401.044 77.2093 401.69 76.8876 401.69 71.0969V28.6318H395.236V23.1628Z"
        fill="currentColor" />
    <path
        d="M444.54 5.69C444.54 8.75 447.03 11.24 450.09 11.24C453.15 11.24 455.655 8.75 455.655 5.69C455.655 2.63 453.15 0.125 450.09 0.125C447.03 0.125 444.54 2.63 444.54 5.69ZM445.875 5.69C445.875 3.275 447.705 1.355 450.09 1.355C452.475 1.355 454.32 3.275 454.32 5.69C454.32 8.105 452.475 10.01 450.09 10.01C447.705 10.01 445.875 8.105 445.875 5.69ZM450.945 8.645H452.655L451.515 6.365C452.145 6.05 452.58 5.405 452.58 4.64C452.58 3.545 451.68 2.675 450.525 2.675H448.02V8.645H449.58V6.635H450.03L450.945 8.645ZM449.58 5.375V3.935H450.225C450.705 3.935 451.005 4.205 451.005 4.655C451.005 5.09 450.705 5.375 450.225 5.375H449.58Z"
        fill="currentColor" />
</svg>