<svg width="118" height="29" viewBox="0 0 118 29" fill="none" xmlns="http://www.w3.org/2000/svg">
<path d="M0.138794 19.0986C0.138794 13.427 4.68623 9.7482 9.84681 9.7482C12.9636 9.7482 15.4672 11.1278 17.1023 13.1716L13.9855 15.6752C13.0658 14.5511 11.5329 13.8869 9.949 13.8869C6.83222 13.8869 4.63514 16.084 4.63514 19.0986C4.63514 22.0621 6.83222 24.3613 9.949 24.3613C11.5329 24.3613 13.0658 23.6971 13.9855 22.573L17.1023 25.0766C15.4672 27.1204 12.9125 28.5 9.84681 28.5C4.68623 28.5 0.138794 24.7701 0.138794 19.0986Z" fill="#03A678"/>
<path d="M17.1535 19.0986C17.1535 13.427 21.5476 9.7482 26.6571 9.7482C31.7155 9.7482 36.1607 13.4781 36.1607 19.0986C36.1607 24.7701 31.7155 28.5 26.6571 28.5C21.5476 28.5 17.1535 24.7701 17.1535 19.0986ZM31.6644 19.0986C31.6644 16.0329 29.3651 13.8869 26.606 13.8869C23.8469 13.8869 21.5987 16.084 21.5987 19.0986C21.5987 22.2153 23.8469 24.3613 26.606 24.3613C29.3651 24.4124 31.6644 22.2664 31.6644 19.0986Z" fill="#03A678"/>
<path d="M37.3359 3.92336C37.3359 2.33942 38.6643 1.21534 40.2483 1.21534C41.8322 1.21534 43.1096 2.33942 43.1096 3.92336C43.1096 5.45621 41.8322 6.63139 40.2483 6.63139C38.6643 6.63139 37.3359 5.40511 37.3359 3.92336ZM38.0001 28.0401V10.208H42.4453V28.0401H38.0001Z" fill="#03A678"/>
<path d="M62.5257 18.0256V28.0401H58.0804V18.3321C58.0804 15.4708 56.3432 13.938 54.3505 13.938C52.3067 13.938 49.803 15.1132 49.803 18.5876V28.0912H45.3578V10.2081H49.803V13.0183C50.7227 10.7701 53.533 9.7482 55.3213 9.7482C59.9709 9.7482 62.5257 12.865 62.5257 18.0256Z" fill="#03A678"/>
<path d="M84.4454 19.0985C84.4454 24.77 80.3578 28.5 75.6571 28.5C73.5111 28.5 70.9564 27.5292 69.7301 25.6387V28.0401H65.2849V0.5H69.7301V12.5584C70.9564 10.6679 73.46 9.74816 75.7082 9.74816C80.4089 9.74816 84.4454 13.3759 84.4454 19.0985ZM80.0002 19.0985C80.0002 16.135 77.7009 13.8868 74.9418 13.8868C72.3871 13.8868 69.7812 15.9306 69.7812 19.0985C69.7812 22.2664 72.2338 24.4124 74.9418 24.4124C77.7009 24.4124 80.0002 22.062 80.0002 19.0985Z" fill="#03A678"/>
<path d="M85.6717 3.92336C85.6717 2.33942 87.0001 1.21534 88.5841 1.21534C90.168 1.21534 91.4454 2.33942 91.4454 3.92336C91.4454 5.45621 90.168 6.63139 88.5841 6.63139C87.0001 6.63139 85.6717 5.40511 85.6717 3.92336ZM86.3359 28.0401V10.208H90.7812V28.0401H86.3359Z" fill="#03A678"/>
<path d="M103.606 10.2081V13.7336H99.8249V28.0912H95.3796V13.7336H92.1607V10.2081H95.3796V3.61682H99.8249V10.2081H103.606Z" fill="#03A678"/>
<path d="M103.35 22.573H107.54C107.54 23.7993 108.613 24.9234 110.504 24.9234C112.241 24.9234 113.416 24.0548 113.416 22.8796C113.416 21.9088 112.65 21.4489 111.321 21.1423L108.971 20.5292C104.934 19.4562 103.912 17.3102 103.912 15.0621C103.912 12.2518 106.672 9.7482 110.555 9.7482C113.723 9.7482 117.299 11.3321 117.299 15.3175H113.058C113.058 14.0913 111.934 13.3248 110.708 13.3248C109.328 13.3248 108.358 14.1424 108.358 15.2153C108.358 16.1351 109.226 16.646 110.248 16.9015L113.109 17.6679C117.146 18.6898 117.861 21.2445 117.861 22.8796C117.861 26.5073 114.234 28.5 110.606 28.5C106.978 28.5 103.401 26.354 103.35 22.573Z" fill="#03A678"/>
</svg>
