<?xml version="1.0" encoding="UTF-8"?>
<svg width="141px" height="55px" viewBox="0 0 141 55" version="1.1" xmlns="http://www.w3.org/2000/svg" xmlns:xlink="http://www.w3.org/1999/xlink">
    <!-- Generator: Sketch 51.3 (57544) - http://www.bohemiancoding.com/sketch -->
    <title>Group 15</title>
    <desc>Created with Sketch.</desc>
    <defs></defs>
    <g id="Home" stroke="none" stroke-width="1" fill="none" fill-rule="evenodd">
        <g transform="translate(-134.000000, -30.000000)" id="HERO">
            <g>
                <g id="MENU" transform="translate(134.000000, 30.000000)">
                    <g id="Group-15">
                        <path d="M48.5695155,26.8131017 C48.5695155,33.7816491 49.4318667,41.7632717 44.8651548,46.3299836 C40.2984429,50.8966955 32.3168203,54.3933421 25.3482729,54.3933421 C18.3797255,54.3933421 12.5382335,48.7565649 7.97152164,44.189853 C3.40555959,39.6231411 0.0633863609,33.7816491 0.0633863609,26.8131017 C0.0633863609,19.8445543 2.90089669,13.4991493 7.46685873,8.93168755 C12.0335706,4.36497564 18.3797255,0.272181938 25.3482729,0.272181938 C32.3168203,0.272181938 38.7019684,4.32598236 43.2686803,8.89344415 C47.8353922,13.4594062 48.5695155,19.8445543 48.5695155,26.8131017" fill="#f7cb46"></path>
                        <path d="M55.6787739,33.8318392 C53.5535267,35.9195122 51.3168754,36.7395517 48.5957152,36.7395517 C43.2641397,36.7395517 38.8277521,33.5332235 38.8277521,27.0091628 C38.8277521,20.4851022 43.2641397,17.2787739 48.5957152,17.2787739 C51.2048121,17.2787739 53.2186552,18.0243243 55.23118,20.0005933 L52.3610415,23.0203691 C51.2793013,22.0506922 49.9378378,21.5661833 48.6695452,21.5661833 C45.6121951,21.5661833 43.376203,23.8028345 43.376203,27.0091628 C43.376203,30.5134476 45.7618326,32.3776533 48.5957152,32.3776533 C50.0492419,32.3776533 51.5034278,31.9676335 52.6214239,30.8496374 L55.6787739,33.8318392 Z" id="Fill-4" fill="#000000"></path>
                        <path d="M60.2647989,27.0093606 C60.2647989,29.8056691 61.9424522,32.414766 65.2601846,32.414766 C68.5785761,32.414766 70.2562294,29.8056691 70.2562294,27.0093606 C70.2562294,24.249967 68.3175346,21.566381 65.2601846,21.566381 C61.9800264,21.566381 60.2647989,24.249967 60.2647989,27.0093606 M74.8415953,27.0093606 C74.8415953,32.3033619 71.2259064,36.5907713 65.2601846,36.5907713 C59.295122,36.5907713 55.7163481,32.3033619 55.7163481,27.0093606 C55.7163481,21.7522742 59.3702703,17.4279499 65.2226104,17.4279499 C71.076269,17.4279499 74.8415953,21.7522742 74.8415953,27.0093606" id="Fill-6" fill="#000000"></path>
                        <path d="M88.710679,36.1804878 L88.710679,26.3380356 C88.710679,23.9148319 87.4437047,21.7150956 84.9453527,21.7150956 C82.485234,21.7150956 81.0310481,23.9148319 81.0310481,26.3380356 L81.0310481,36.1804878 L76.4825972,36.1804878 L76.4825972,17.7632169 L80.6955175,17.7632169 L81.0310481,20.0005274 C82.0000659,18.1363217 84.1253131,17.4652604 85.8774555,17.4652604 C88.0771918,17.4652604 90.2769281,18.3597891 91.3210943,20.895056 C92.9611734,18.2852999 95.0864206,17.5397495 97.4720501,17.5397495 C102.691562,17.5397495 105.263744,20.7460778 105.263744,26.2635465 L105.263744,36.1804878 L100.715953,36.1804878 L100.715953,26.2635465 C100.715953,23.8403428 99.7093606,21.7895847 97.2485827,21.7895847 C94.7878049,21.7895847 93.2591299,23.9148319 93.2591299,26.3380356 L93.2591299,36.1804878 L88.710679,36.1804878 Z" id="Fill-8" fill="#000000"></path>
                        <polygon id="Fill-10" fill="#000000" points="115.05735 36.180356 119.568227 36.180356 119.568227 10.1203691 115.05735 10.1203691"></polygon>
                        <polygon id="Fill-12" fill="#000000" points="140.968029 17.8005933 129.746539 43.8605801 124.749835 43.8605801 128.18029 35.8823336 120.835531 17.8005933 126.129532 17.8005933 128.925181 25.7412657 130.677983 30.9238629 132.579103 25.8533289 135.93441 17.8005933"></polygon>
                        <polygon id="Fill-13" fill="#000000" points="108.059987 36.180356 112.571523 36.180356 112.571523 31.6694792 108.059987 31.6694792"></polygon>
                        <path d="M33.286091,24.7427818 C32.9914305,22.3861569 31.1502966,21.208174 28.5735003,21.208174 C26.1430455,21.208174 24.1535926,22.3861569 23.4911009,24.7427818 L33.286091,24.7427818 Z M23.4172709,28.4619644 C23.7132498,30.7078444 25.6638102,32.3281477 28.8305867,32.3281477 C30.4878049,32.3281477 32.659855,31.7019117 33.6908372,30.6346737 L36.5636124,33.4692156 C34.6486486,35.4586684 31.5187871,36.4151615 28.757416,36.4151615 C22.4970336,36.4151615 18.777851,32.5489782 18.777851,26.7309163 C18.777851,21.208174 22.5339486,17.2305867 28.4258405,17.2305867 C34.5009888,17.2305867 38.2933421,20.9873434 37.5945946,28.4619644 L23.4172709,28.4619644 Z" id="Fill-14" fill="#000000"></path>
                    </g>
                </g>
            </g>
        </g>
    </g>
</svg>