<svg width="201" height="39" viewBox="0 0 201 39" fill="none" xmlns="http://www.w3.org/2000/svg">
<path fill-rule="evenodd" clip-rule="evenodd" d="M175.304 14.3537L176.727 17.2304H179.899L171.361 0L162.852 17.2304H166.024L167.477 14.3537H175.304ZM168.87 11.5069L171.361 6.44269L173.881 11.5069H168.87Z" fill="#1A1A1A"/>
<path d="M2.81648 0.239685H0V17.4701H2.81648V10.2783H11.3549V17.4701H14.201V0.239685H11.3549V7.43153H2.81648V0.239685Z" fill="#1A1A1A"/>
<path d="M54.0765 15.3725C55.4403 13.9641 56.1518 12.2561 56.1518 10.2783H56.1222V0.239685H53.276V10.3083C53.276 11.4769 52.861 12.4958 52.0012 13.3348C51.1711 14.1739 50.1927 14.5934 49.0068 14.5934C47.821 14.5934 46.813 14.1739 45.9828 13.3348C45.1824 12.5257 44.7673 11.5069 44.7673 10.3083V0.239685H41.9508V10.2783C41.9508 12.2561 42.6623 13.9341 44.0261 15.3725C45.4195 16.7809 47.1094 17.4701 49.0365 17.4701C50.9932 17.4701 52.6534 16.751 54.0765 15.3725Z" fill="#1A1A1A"/>
<path d="M62.9706 0.239685H77.2013V3.11642H71.509V17.4701H68.6629V3.11642H62.9706V0.239685Z" fill="#1A1A1A"/>
<path d="M95.7901 3.11642V0.239685H84.4352V17.4402H95.7901V14.5634H87.2517V10.2783H95.7901V7.43152H87.2517V3.11642H95.7901Z" fill="#1A1A1A"/>
<path d="M115.061 0.239685H117.877V7.43153H126.416V0.239685H129.262V17.4701H126.416V10.2783H117.877V17.4701H115.061V0.239685Z" fill="#1A1A1A"/>
<path d="M141.061 0.239685H138.245V17.4701H141.061V0.239685Z" fill="#1A1A1A"/>
<path d="M149.54 13.7544C150.104 14.3237 150.756 14.5934 151.527 14.5934C152.327 14.5934 152.98 14.3237 153.513 13.7843C154.076 13.215 154.343 12.5557 154.343 11.7466V0.239685H157.219V11.7466C157.219 13.3348 156.656 14.6833 155.559 15.822C154.403 16.9307 153.068 17.5001 151.527 17.5001C149.956 17.5001 148.621 16.9307 147.495 15.822L149.54 13.7544Z" fill="#1A1A1A"/>
<path fill-rule="evenodd" clip-rule="evenodd" d="M198.518 8.83993C199.526 9.8288 200.03 11.0274 200.03 12.4358C200.03 13.1251 199.911 13.7543 199.644 14.3836C199.377 14.983 199.022 15.5223 198.577 15.9718C198.132 16.4213 197.599 16.7809 197.006 17.0506C196.413 17.3203 195.76 17.4402 195.079 17.4402H185.829V0.239685H195.079C195.731 0.239685 196.383 0.359549 196.976 0.629243C197.599 0.898937 198.132 1.25853 198.577 1.70802C199.022 2.15751 199.377 2.6969 199.644 3.29622C199.911 3.89554 200.03 4.55479 200.03 5.24401C200 6.65241 199.496 7.85105 198.518 8.83993ZM195.049 3.11642H188.645V7.43152H195.049C195.316 7.43152 195.612 7.37159 195.849 7.25173C196.116 7.13186 196.353 6.98203 196.531 6.77227C196.739 6.56251 196.887 6.35275 196.976 6.08305C197.095 5.81336 197.124 5.54367 197.124 5.24401C197.124 4.97431 197.065 4.67465 196.976 4.43492C196.857 4.16523 196.709 3.9255 196.531 3.74571C196.324 3.53594 196.116 3.38611 195.849 3.29622C195.583 3.17635 195.316 3.11642 195.049 3.11642ZM195.049 14.5934C195.316 14.5934 195.612 14.5335 195.849 14.4436C196.116 14.3237 196.353 14.1739 196.531 13.9941C196.739 13.7843 196.887 13.5746 196.976 13.3049C197.095 13.0352 197.124 12.7655 197.124 12.4958C197.124 12.2261 197.065 11.9264 196.976 11.6867C196.857 11.417 196.709 11.1773 196.531 10.9975C196.353 10.7877 196.116 10.6379 195.849 10.518C195.583 10.3982 195.316 10.3382 195.019 10.3382H188.615V14.6234H195.049V14.5934Z" fill="#1A1A1A"/>
<path d="M68.3071 31.6745H67.5659V38.7165H68.3367V32.9631L72.8135 38.6866H73.4361V31.6745H72.6653V37.2782L68.3071 31.6745Z" fill="#1A1A1A"/>
<path d="M77.6163 31.6741H82.6267V32.3933H78.4168V34.7905H82.182V35.5097H78.4168V37.9669H82.686V38.6861H77.6163V31.6741Z" fill="#1A1A1A"/>
<path d="M86.3622 31.6741H85.5025L88.0521 38.7161H88.7044L90.6018 33.0225L92.4992 38.7161H93.1515L95.6122 31.6741H94.7821L92.7957 37.5174L90.8983 31.6741H90.246L88.3486 37.5174L86.3622 31.6741Z" fill="#1A1A1A"/>
<path d="M103.913 35.9294L101.038 31.7042H101.986L104.328 35.2102L106.671 31.7042H107.59L104.714 35.9294V38.7162H103.913V35.9294Z" fill="#1A1A1A"/>
<path fill-rule="evenodd" clip-rule="evenodd" d="M112.63 31.5842C110.525 31.5842 109.102 33.2623 109.102 35.2101C109.102 37.1279 110.525 38.806 112.63 38.836C114.735 38.836 116.158 37.1279 116.158 35.2101V35.1801C116.158 33.2623 114.735 31.5842 112.63 31.5842ZM112.63 32.3034C114.201 32.3034 115.357 33.5919 115.357 35.2101C115.357 36.7983 114.231 38.0868 112.659 38.0868C111.088 38.0868 109.932 36.7983 109.932 35.2101V35.1801C109.932 33.5919 111.058 32.3034 112.63 32.3034Z" fill="#1A1A1A"/>
<path fill-rule="evenodd" clip-rule="evenodd" d="M119.004 31.6741H121.969C122.828 31.6741 123.51 31.9438 123.925 32.3633C124.251 32.6929 124.459 33.2023 124.459 33.7417V33.7717C124.459 34.9404 123.658 35.5996 122.591 35.8094L124.726 38.6562H123.777L121.761 35.9292H119.775V38.6562H119.004V31.6741ZM121.939 35.27C122.977 35.27 123.718 34.7306 123.718 33.8316V33.8017C123.718 32.9326 123.065 32.4232 121.939 32.4232H119.804V35.27H121.939Z" fill="#1A1A1A"/>
<path d="M128.135 31.6741H127.335V38.6861H128.106V36.7983L129.588 35.3L132.256 38.6861H133.234L130.151 34.7606L133.116 31.6741H132.108L128.135 35.8393V31.6741Z" fill="#1A1A1A"/>
<path fill-rule="evenodd" clip-rule="evenodd" d="M24.4589 14.3537H32.3154L33.7385 17.2304H36.9107L28.3723 0L19.834 17.2304H23.0062L24.4589 14.3537ZM30.8627 11.5069H25.8523L28.3427 6.44269L30.8627 11.5069Z" fill="#1A1A1A"/>
</svg>
