<svg width="221" height="33" viewBox="0 0 221 33" xmlns="http://www.w3.org/2000/svg">
    <path fill-rule="evenodd" clip-rule="evenodd"
        d="M95.8127 0.923309L96.315 1.62655L92.0919 19.9579L92.0909 19.9621C92.0143 20.2839 91.9243 20.6743 91.8537 21.0425C91.7806 21.4231 91.7372 21.7359 91.7372 21.9203C91.7372 22.4333 91.8453 22.5862 91.9076 22.642C91.9877 22.7136 92.1842 22.8019 92.7114 22.8019C93.0797 22.8019 93.782 22.6887 94.1443 22.5593L95.1688 22.1934L94.649 24.4956L94.3845 24.62C92.7672 25.3811 91.5054 25.6945 90.4913 25.6945C89.6786 25.6945 88.923 25.473 88.3658 24.9571C88.0507 24.6653 87.8235 24.3021 87.6842 23.8819C87.2939 24.2116 86.8293 24.5736 86.3104 24.8956C85.4548 25.4266 84.4047 25.8795 83.2454 25.8795C81.6123 25.8795 80.2626 25.2441 79.3351 24.077C78.4208 22.9265 77.9603 21.3158 77.9603 19.4227C77.9603 14.096 81.9671 9.05003 87.0996 9.05003C88.5469 9.05003 89.7169 9.41975 90.4471 9.73223L91.4497 5.35231L91.4506 5.34878C91.5655 4.86016 91.5888 4.59846 91.5888 4.34499C91.5888 4.09678 91.5434 3.96501 91.502 3.89339C91.4645 3.82863 91.4058 3.76975 91.2876 3.71318C91.1588 3.65157 90.9752 3.60071 90.7119 3.55884C90.4498 3.51716 90.1479 3.48985 89.788 3.45762L89.7861 3.45745C89.5914 3.44002 89.3824 3.42131 89.1645 3.39837L88.4904 3.32742L88.9621 1.30583L95.8127 0.923309ZM83.8317 13.6997C82.8765 15.2064 82.2712 17.2748 82.2712 19.4536C82.2712 20.5839 82.3835 21.4878 82.7035 22.0966C82.856 22.3866 83.0504 22.5985 83.2994 22.7427C83.5509 22.8882 83.8971 22.9869 84.3862 22.9869C85.0005 22.9869 85.6436 22.739 86.2748 22.3396C86.8503 21.9755 87.3794 21.5085 87.8185 21.0666L89.6404 13.152C89.556 12.4166 88.917 11.3259 87.3155 11.3259C86.0436 11.3259 84.7947 12.1808 83.8317 13.6997Z"
    />
    <path fill-rule="evenodd" clip-rule="evenodd"
        d="M5.45173 2.88605H15.5535C17.2319 2.88605 18.8218 3.19544 20.0127 3.93598C21.2373 4.69742 22.0103 5.90128 22.0103 7.55448C22.0103 9.66815 21.1975 11.3358 19.8661 12.5784C18.7186 13.6495 17.2052 14.3884 15.5369 14.856C16.1869 16.1078 16.646 16.9575 17.1012 17.7998C17.6 18.7229 18.0949 19.6389 18.827 21.0581C19.4406 22.1967 19.8363 22.5901 20.3844 22.9152C20.5459 23.0045 20.8213 23.0893 21.1594 23.1548C21.488 23.2184 21.8237 23.2541 22.0637 23.2682L22.7841 23.3106L22.2491 25.4506H15.9866L15.8334 25.0818C14.4208 21.6812 13.1439 19.3123 11.7587 16.7431C11.5805 16.4126 11.4 16.0778 11.2176 15.738H9.80203L8.3376 22.1413C8.32976 22.18 8.32064 22.2221 8.31221 22.2611L8.31158 22.264C8.29575 22.3371 8.28139 22.4037 8.27072 22.4628C8.26549 22.4918 8.26201 22.5142 8.25996 22.5308C8.25904 22.5382 8.25861 22.5428 8.25842 22.545C8.25901 22.7116 8.28775 22.8123 8.31906 22.8709C8.34438 22.9184 8.38464 22.9657 8.48159 23.0072L8.49776 23.0142L8.51348 23.022L8.51477 23.0225C8.52468 23.0259 8.59107 23.0488 8.74322 23.0796C8.89137 23.1096 9.07507 23.1384 9.27237 23.1644C9.66673 23.2165 10.0847 23.2538 10.3182 23.2684L11.0358 23.3132L10.5014 25.4506H0.233582L0.772315 23.2957L1.2093 23.2684C1.4413 23.2539 1.84362 23.2167 2.23516 23.1645C2.65133 23.109 2.97388 23.0464 3.09768 22.9987L3.10238 22.9969C3.59024 22.814 3.83526 22.4421 3.96235 21.8829L3.9626 21.8818L7.54576 6.25179L7.55489 6.22441C7.59284 6.11055 7.61668 5.9601 7.61668 5.79696C7.61668 5.671 7.59238 5.59811 7.56761 5.55579C7.54721 5.52095 7.50676 5.47169 7.39973 5.42463C7.00658 5.26957 6.1244 5.09607 5.68019 5.0683L4.98388 5.02479L5.45173 2.88605ZM12.2084 5.22364L10.382 13.3079H11.7609C14.6761 13.3079 17.1135 11.0393 17.1135 7.89366C17.1135 6.91582 16.7854 6.27854 16.3025 5.87416C15.803 5.45593 15.0616 5.22364 14.1351 5.22364H12.2084Z"
    />
    <path fill-rule="evenodd" clip-rule="evenodd"
        d="M23.0696 19.5461C23.0696 14.4405 26.5839 9.05012 32.3014 9.05012C33.8296 9.05012 35.0433 9.39036 35.8871 10.058C36.702 10.7027 37.1086 11.6031 37.1511 12.6147L37.6293 10.4286L37.9043 10.3051C39.4408 9.61528 40.7667 9.23512 41.7878 9.23512C42.7025 9.23512 43.4393 9.49472 43.9356 10.0902C44.2047 10.4131 44.3738 10.8015 44.4757 11.2267C46.3056 9.83432 47.5457 9.05012 49.7429 9.05012C50.7804 9.05012 51.6776 9.37755 52.3378 9.97599C52.7542 10.3535 53.0606 10.8247 53.2482 11.3568C55.0996 9.88746 56.5079 9.05012 58.7155 9.05012C59.817 9.05012 60.7397 9.40322 61.3856 10.0735C62.0281 10.7401 62.3356 11.6567 62.3356 12.6702C62.3356 13.185 62.267 14.0398 61.9445 15.1712L60.6793 20.0158C60.4664 20.776 60.3314 21.4816 60.3314 21.9203C60.3314 22.4334 60.4395 22.5863 60.5018 22.6421C60.5819 22.7136 60.7783 22.802 61.3055 22.802C61.6997 22.802 62.4261 22.7127 62.7693 22.5902L63.7938 22.2243L63.2699 24.5445L62.9825 24.6628C61.4034 25.3131 60.1374 25.6946 59.1163 25.6946C58.1872 25.6946 57.4206 25.4297 56.8842 24.9089C56.3472 24.3875 56.1129 23.6795 56.1129 22.9379C56.1129 22.482 56.1822 21.8442 56.38 21.1179L56.3807 21.1154L57.1191 18.3157L57.8575 15.516L57.8584 15.5122C58.077 14.6374 58.2096 13.9402 58.2096 13.626C58.2096 13.0147 58.0823 12.6219 57.902 12.3924C57.742 12.1888 57.4788 12.0352 56.9888 12.0352C56.1869 12.0352 54.9839 12.3287 53.3404 13.9864L50.6808 25.4479H46.6456L49.1604 14.6607C49.2865 14.1246 49.3603 13.6991 49.3603 13.5335C49.3603 12.9781 49.2213 12.614 49.0284 12.3956C48.8459 12.1889 48.5471 12.0352 48.047 12.0352C47.2151 12.0352 45.9245 12.3578 44.2776 14.1014L41.6787 25.4479H37.646L40.0347 14.964L40.0371 14.955C40.2215 14.2481 40.3877 13.3883 40.3877 12.9477C40.3877 12.3931 40.3054 12.2553 40.2705 12.2186C40.2446 12.1912 40.1244 12.0969 39.5677 12.0969C39.4382 12.0969 39.1702 12.1373 38.8558 12.2063C38.5515 12.2731 38.2721 12.3513 38.138 12.4L37.1546 12.7576L37.1548 12.7935C37.1548 15.9592 34.5919 17.2642 32.8506 17.9172L32.8458 17.919C31.0095 18.5894 29.2589 18.9626 27.2689 19.2366C27.3271 20.4924 27.5986 21.3988 28.0191 21.9959C28.4712 22.638 29.1405 22.987 30.1122 22.987C31.9053 22.987 33.1378 22.1112 34.5696 20.2318L34.9295 19.7595L36.7167 21.0999L36.4097 21.5695C34.7518 24.1051 31.9903 25.8796 29.1255 25.8796C27.0988 25.8796 25.5538 25.2402 24.5249 24.0689C23.5077 22.9107 23.0696 21.3167 23.0696 19.5461ZM27.4751 16.9529C27.7907 15.3797 28.4007 14.0373 29.1559 13.0589C30.0419 11.9111 31.0725 11.326 32.0239 11.326C32.4224 11.326 32.6933 11.3655 32.868 11.4815L32.87 11.4829C32.9902 11.5635 33.183 11.7627 33.183 12.4235C33.183 13.6249 32.7819 14.6046 31.9798 15.326C31.7122 15.5667 31.4 15.7786 31.0431 15.9604C29.9673 16.5102 28.8246 16.7448 27.4751 16.9529Z"
    />
    <path fill-rule="evenodd" clip-rule="evenodd"
        d="M63.8469 19.5461C63.8469 14.4405 67.3612 9.05012 73.0787 9.05012C74.607 9.05012 75.8206 9.39036 76.6644 10.058C77.527 10.7405 77.9321 11.7094 77.9321 12.7935C77.9321 15.9592 75.3692 17.2642 73.628 17.9172L73.6231 17.919C71.7869 18.5894 70.0362 18.9626 68.0463 19.2366C68.1045 20.4924 68.3759 21.3988 68.7964 21.9959C69.2486 22.638 69.9179 22.987 70.8895 22.987C72.6826 22.987 73.9151 22.1112 75.347 20.2318L75.7069 19.7595L77.4941 21.0999L77.1871 21.5695C75.5291 24.1051 72.7676 25.8796 69.9028 25.8796C67.8761 25.8796 66.3311 25.2402 65.3023 24.0689C64.285 22.9107 63.8469 21.3168 63.8469 19.5461ZM68.2525 16.9529C69.6019 16.7448 70.744 16.5106 71.8197 15.9608C73.2463 15.234 73.9604 14.0258 73.9604 12.4235C73.9604 11.7627 73.7676 11.5635 73.6474 11.4829C73.4727 11.3658 73.2013 11.326 72.8012 11.326C71.8498 11.326 70.8193 11.9111 69.9333 13.0589C69.1781 14.0373 68.568 15.3797 68.2525 16.9529Z"
    />
    <path
        d="M104.657 24.105C103.254 25.1188 101.839 25.7588 100.027 25.7588C98.9268 25.7588 97.9868 25.4068 97.32 24.7448C96.6535 24.0831 96.3145 23.1657 96.3145 22.1387C96.3145 21.6208 96.3839 20.8329 96.6706 19.6539L96.6716 19.6502L97.8459 14.953C98.053 14.1836 98.1646 13.4057 98.1646 12.9502C98.1646 12.3936 98.0814 12.2678 98.0547 12.2401C98.0345 12.2192 97.924 12.1302 97.3754 12.1302C97.2295 12.1302 96.9603 12.1711 96.6481 12.2396C96.3475 12.3056 96.0602 12.3851 95.8996 12.4387L94.8655 12.7834L95.447 10.4574L95.712 10.3385C97.2282 9.65769 98.5632 9.23762 99.4413 9.23762C100.349 9.23762 101.12 9.43768 101.663 9.9473C102.213 10.4643 102.414 11.1926 102.414 11.9943C102.414 12.4493 102.345 13.0854 102.148 13.8097L100.793 19.2914L100.791 19.298C100.574 20.1344 100.44 20.8677 100.44 21.1828C100.44 21.769 100.587 22.1589 100.791 22.3941C100.984 22.6166 101.291 22.7737 101.785 22.7737C102.555 22.7737 103.835 22.5159 105.339 21.0373L107.896 9.51758L111.231 9.27932L111.807 9.95061L109.152 22.0204C108.383 25.52 107.158 28.059 105.447 29.7247C103.72 31.406 101.556 32.1414 99.0404 32.1414C97.3312 32.1414 96.1936 31.8607 95.4721 31.3488C94.703 30.8032 94.4953 30.0625 94.4953 29.4155C94.4953 28.9621 94.6209 28.4195 94.9535 27.9743C95.3038 27.5054 95.8581 27.1829 96.6046 27.1829C97.5051 27.1829 98.1324 27.6985 98.5565 28.2628C98.956 28.7942 99.2327 29.4433 99.4362 29.927C101.192 29.914 103.421 28.57 104.657 24.105Z"
    />
    <path
        d="M120.082 2.64847V24.8488H122.395V5.06604L129.795 24.8488H132.816L140.216 4.88914V24.8488H142.714V2.64847H138.767L131.396 22.4773L123.967 2.64847H120.082Z"
    />
    <path fill-rule="evenodd" clip-rule="evenodd"
        d="M175.822 22.0289V24.8488H178.134V2.64847H175.668V11.729C175.281 10.9991 174.757 10.3979 174.095 9.92525C173.088 9.20579 171.844 8.84606 170.364 8.84606C168.925 8.84606 167.672 9.18524 166.603 9.86358C165.534 10.5419 164.701 11.4978 164.105 12.7311C163.509 13.9645 163.211 15.4034 163.211 17.0479C163.211 18.6718 163.499 20.0901 164.074 21.3029C164.67 22.5157 165.493 23.4613 166.541 24.1396C167.61 24.818 168.853 25.1571 170.272 25.1571C171.711 25.1571 172.944 24.8077 173.972 24.1088C174.788 23.5649 175.404 22.8716 175.822 22.0289ZM174.434 21.3954C173.55 22.4643 172.317 22.9988 170.734 22.9988C169.172 22.9988 167.949 22.4746 167.065 21.4263C166.181 20.3574 165.739 18.8979 165.739 17.0479C165.739 15.1567 166.181 13.6767 167.065 12.6078C167.949 11.5389 169.172 11.0044 170.734 11.0044C172.297 11.0044 173.53 11.5389 174.434 12.6078C175.339 13.6767 175.791 15.1259 175.791 16.9554C175.791 18.8259 175.339 20.306 174.434 21.3954Z"
    />
    <path
        d="M183.36 23.8364C184.511 24.7203 186.053 25.1623 187.985 25.1623C189.835 25.1623 191.284 24.782 192.333 24.0214C193.381 23.2403 193.905 22.1611 193.905 20.7839C193.905 19.6533 193.535 18.6872 192.795 17.8855C192.055 17.0838 190.955 16.4877 189.496 16.0971L187.029 15.4188C186.084 15.1516 185.405 14.8227 184.994 14.4321C184.604 14.0415 184.408 13.579 184.408 13.0446C184.408 12.3457 184.686 11.8112 185.241 11.4412C185.796 11.0507 186.577 10.8554 187.584 10.8554C188.633 10.8554 189.475 11.0815 190.113 11.5337C190.75 11.9859 191.14 12.6335 191.284 13.4762H193.659C193.515 12.0168 192.908 10.8759 191.839 10.0537C190.77 9.23146 189.383 8.82034 187.677 8.82034C185.95 8.82034 184.583 9.22118 183.576 10.0229C182.569 10.804 182.065 11.8729 182.065 13.2296C182.065 14.2985 182.425 15.2235 183.144 16.0046C183.864 16.7652 184.943 17.3305 186.382 17.7005L188.91 18.348C189.958 18.6152 190.657 18.9544 191.007 19.3655C191.356 19.7561 191.531 20.2186 191.531 20.753C191.531 21.5136 191.223 22.0994 190.606 22.5106C189.989 22.9217 189.136 23.1272 188.047 23.1272C186.813 23.1272 185.827 22.86 185.087 22.3256C184.347 21.7911 183.905 21.0203 183.761 20.013H181.387C181.551 21.6575 182.209 22.9319 183.36 23.8364Z"
    />
    <path fill-rule="evenodd" clip-rule="evenodd"
        d="M153.853 25.1623C152.353 25.1623 151.027 24.8128 149.876 24.1139C148.725 23.3945 147.82 22.4181 147.162 21.1847C146.505 19.9513 146.176 18.533 146.176 16.9296C146.176 15.3263 146.494 13.9182 147.132 12.7054C147.789 11.4721 148.704 10.5162 149.876 9.83786C151.047 9.15952 152.394 8.82034 153.915 8.82034C155.374 8.82034 156.639 9.13896 157.708 9.77619C158.797 10.4134 159.63 11.3076 160.205 12.4587C160.801 13.6099 161.099 14.9666 161.099 16.5288C161.099 16.7344 161.089 16.9296 161.068 17.1146C161.068 17.2996 161.048 17.5052 161.007 17.7313H148.737C148.86 19.2198 149.322 20.4429 150.122 21.4005C151.089 22.5106 152.373 23.0656 153.977 23.0656C154.984 23.0656 155.868 22.8497 156.628 22.4181C157.389 21.9658 157.944 21.3286 158.293 20.5064H160.637C160.123 21.9453 159.26 23.0861 158.047 23.9289C156.855 24.7511 155.457 25.1623 153.853 25.1623ZM158.638 15.6655H148.783C148.954 14.4056 149.4 13.3675 150.122 12.5512C151.089 11.4618 152.353 10.917 153.915 10.917C155.436 10.917 156.608 11.4309 157.43 12.4587C158.095 13.2529 158.497 14.3218 158.638 15.6655Z"
    />
    <path
        d="M207.175 16.7839H209.523V19.5878C209.523 20.2481 209.977 20.7895 210.53 20.7895C211.083 20.7895 211.537 20.2481 211.537 19.5878V16.7839H213.885C214.439 16.7839 214.892 16.2425 214.892 15.5823C214.892 14.922 214.439 14.3806 213.885 14.3806H211.537V11.5767C211.537 10.9164 211.083 10.375 210.53 10.375C209.977 10.375 209.523 10.9164 209.523 11.5767V14.3806H207.175C206.621 14.3806 206.168 14.922 206.168 15.5823C206.168 16.2425 206.621 16.7839 207.175 16.7839Z"
    />
    <path
        d="M220.502 14.1155L220.428 14.0076C219.888 13.2018 219.59 12.1894 219.59 11.1552V8.48271C219.59 6.71618 218.71 5.1265 217.351 4.4335L216.63 4.06424C216.503 4.00009 216.368 3.9688 216.237 3.9688C215.843 3.9688 215.471 4.24105 215.31 4.69792C215.203 4.99365 215.2 5.31911 215.3 5.61483C215.4 5.91056 215.592 6.14681 215.837 6.27199L216.558 6.64125C217.175 6.95731 217.575 7.67861 217.575 8.48444V11.1569C217.575 12.6543 217.99 14.1407 218.745 15.3423L218.896 15.5833L218.745 15.8242C217.99 17.0259 217.575 18.5123 217.575 20.0096V22.6821C217.575 23.4832 217.175 24.2076 216.558 24.5253L215.837 24.8945C215.589 25.0228 215.398 25.2544 215.3 25.5517C215.199 25.8474 215.203 26.176 215.31 26.4733C215.467 26.9176 215.833 27.2024 216.237 27.2024C216.374 27.2024 216.505 27.1711 216.633 27.107L217.353 26.7377C218.713 26.0414 219.592 24.4549 219.592 22.6885V20.016C219.592 18.9834 219.891 17.9694 220.431 17.1636L220.504 17.051C220.782 16.6379 220.934 16.1184 220.934 15.5896C220.934 15.0607 220.78 14.5397 220.504 14.1235L220.502 14.1155Z"
    />
    <path
        d="M200.633 17.1606C201.173 17.9664 201.472 18.9787 201.472 20.013V22.6854C201.472 24.4519 202.352 26.0416 203.711 26.7346L204.432 27.1039C204.559 27.168 204.69 27.1993 204.828 27.1993C205.23 27.1993 205.596 26.9146 205.754 26.4702C205.862 26.1745 205.865 25.849 205.765 25.5486C205.664 25.2529 205.473 25.0166 205.228 24.8915L204.507 24.5222C203.889 24.2061 203.49 23.4848 203.49 22.679V20.0065C203.49 18.5092 203.074 17.0227 202.319 15.8211L202.168 15.5802L202.319 15.3392C203.074 14.1376 203.49 12.6511 203.49 11.1538V8.48137C203.49 7.68027 203.889 6.95582 204.507 6.63818L205.228 6.26892C205.737 6.00918 205.976 5.29882 205.757 4.69017C205.539 4.08153 204.944 3.79674 204.435 4.05806L203.714 4.42732C202.354 5.12361 201.475 6.71485 201.475 8.47653V11.149C201.475 12.1817 201.176 13.1956 200.636 14.0014L200.563 14.114C200.285 14.5271 200.133 15.0466 200.133 15.5754C200.133 16.1043 200.287 16.6253 200.563 17.0415L200.636 17.1495L200.633 17.1606Z"
    />
</svg>
    